<svg xmlns="http://www.w3.org/2000/svg" width="520" height="450" viewBox="0 0 520 450">
  <g id="Group_1" data-name="Group 1" transform="translate(-255 -244)">
    <g id="Polygon_1" data-name="Polygon 1" transform="translate(255 244)" fill="#fff">
      <path d="M 375.5718383789062 440.0000305175781 L 144.4283905029297 440.0000305175781 C 139.0885314941406 440.0001220703125 134.1118469238281 437.1278686523438 131.4403839111328 432.5042724609375 L 15.88484573364258 232.5041809082031 C 13.21053886413574 227.8754119873047 13.21053886413574 222.1245727539062 15.88492298126221 217.4958038330078 L 131.4404602050781 17.49580001831055 C 134.1119232177734 12.87226104736328 139.0886077880859 10.00003051757812 144.428466796875 10.00003051757812 L 375.5716247558594 10.00003051757812 C 380.9114685058594 10.00003051757812 385.8881530761719 12.87226104736328 388.5596008300781 17.49580001831055 L 504.1151428222656 217.4958801269531 C 506.7894592285156 222.1246490478516 506.7894592285156 227.8754119873047 504.1151428222656 232.5041809082031 L 388.5596008300781 432.5041809082031 C 385.8881530761719 437.1278076171875 380.9115295410156 440.0000305175781 375.5718383789062 440.0000305175781 Z" stroke="none"/>
      <path d="M 144.4284057617188 20.00003051757812 C 142.6484985351562 20.00003051757812 140.9895935058594 20.95745849609375 140.0991516113281 22.49862670898438 L 24.5435791015625 222.49853515625 C 23.65206909179688 224.0415344238281 23.65206909179688 225.9584503173828 24.5435791015625 227.5013580322266 L 140.0989990234375 427.5012817382812 C 140.989501953125 429.0425415039062 142.6484985351562 430.0000305175781 144.4284057617188 430.0000305175781 L 375.5715942382812 430.0000305175781 C 377.3515014648438 430.0000305175781 379.0104370117188 429.0426025390625 379.9008178710938 427.5013732910156 L 495.4565124511719 227.5013580322266 C 496.3479309082031 225.9584503173828 496.3479309082031 224.0415344238281 495.4564208984375 222.4986114501953 L 379.9010009765625 22.49868774414062 C 379.010498046875 20.95745849609375 377.3515625 20.00003051757812 375.5715942382812 20.00003051757812 L 144.4284057617188 20.00003051757812 M 144.4284057617188 3.0517578125e-05 L 375.5715942382812 3.0517578125e-05 C 384.5003356933594 3.0517578125e-05 392.7513427734375 4.761932373046875 397.21826171875 12.4930419921875 L 512.7737426757812 212.4930267333984 C 517.2449340820312 220.2316131591797 517.2449340820312 229.7684478759766 512.7737426757812 237.5069427490234 L 397.2181701660156 437.5069580078125 C 392.7513427734375 445.238037109375 384.5003356933594 450.0000305175781 375.5715942382812 450.0000305175781 L 144.4284057617188 450.0000305175781 C 135.4996643066406 450.0000305175781 127.2486572265625 445.238037109375 122.78173828125 437.5069580078125 L 7.22625732421875 237.5069427490234 C 2.75506591796875 229.7683563232422 2.75506591796875 220.2316131591797 7.22625732421875 212.4930267333984 L 122.7818298339844 12.4930419921875 C 127.2486572265625 4.761932373046875 135.4996643066406 3.0517578125e-05 144.4284057617188 3.0517578125e-05 Z" stroke="none" fill="#121212"/>
    </g>
    <circle id="Ellipse_1" data-name="Ellipse 1" cx="16" cy="16" r="16" transform="translate(499 453)" fill="#9a9a9a"/>
  </g>
</svg>
