<svg width="50" height="50" viewBox="0 0 50 50" fill="none" xmlns="http://www.w3.org/2000/svg">
<g clip-path="url(#clip0_44_83)">
<path d="M23.5 3.17543C24.4282 2.63953 25.5718 2.63953 26.5 3.17543L43.1506 12.7887C44.0788 13.3246 44.6506 14.315 44.6506 15.3868V34.6132C44.6506 35.685 44.0788 36.6754 43.1506 37.2113L26.5 46.8246C25.5718 47.3605 24.4282 47.3605 23.5 46.8246L6.84937 37.2113C5.92116 36.6754 5.34937 35.685 5.34937 34.6133V15.3868C5.34937 14.315 5.92116 13.3246 6.84936 12.7887L23.5 3.17543Z" stroke="white" stroke-width="4"/>
<path d="M18.1299 19.1357H16.0654V25.5137C16.0654 27.6875 17.6719 29.1709 20.2012 29.1709C22.7236 29.1709 24.3301 27.6875 24.3301 25.5137V19.1357H22.2656V25.3086C22.2656 26.5732 21.5205 27.4004 20.2012 27.4004C18.875 27.4004 18.1299 26.5732 18.1299 25.3086V19.1357ZM25.4512 29H27.6797L29.8535 25.5479H29.9082L32.0684 29H34.4199L31.2344 24.0918V24.0439L34.4609 19.1357H32.1572L30.0449 22.6904H29.9902L27.8984 19.1357H25.4717L28.582 24.0029V24.0576L25.4512 29Z" fill="white"/>
</g>
<defs>
<clipPath id="clip0_44_83">
<rect width="50" height="50" fill="white"/>
</clipPath>
</defs>
</svg>
